<svg width="12" height="10" viewBox="0 0 12 10" fill="none" xmlns="http://www.w3.org/2000/svg">
<path d="M10.4585 2.3988L7.24431 0.607003C6.30074 0.081049 5.12151 0.7383 5.12151 1.79098V1.9748C5.12151 2.14085 5.21334 2.29454 5.36204 2.37718L5.96899 2.71546C6.14718 2.81509 6.36946 2.69074 6.36946 2.49226V2.03504C6.36946 1.80643 6.6255 1.66355 6.83015 1.77785L9.61403 3.33023C9.81898 3.44454 9.81898 3.7303 9.61403 3.84384L6.83015 5.39622C6.6255 5.51052 6.36946 5.36763 6.36946 5.13902V4.89573C6.36946 3.84305 5.19023 3.18503 4.24605 3.71175L1.0319 5.50356C0.0883263 6.02953 0.0883263 7.34557 1.0319 7.87151L4.24605 9.66332C5.18932 10.1893 6.36946 9.53202 6.36946 8.47934V8.29553C6.36946 8.12947 6.27763 7.97654 6.12893 7.89313L5.52198 7.55408C5.34379 7.45446 5.12151 7.5788 5.12151 7.77731V8.23453C5.12151 8.46314 4.86577 8.606 4.66082 8.49169L1.87694 6.93932C1.67229 6.82501 1.67229 6.53926 1.87694 6.42496L4.66082 4.87256C4.86577 4.75825 5.12151 4.90114 5.12151 5.12975V5.37305C5.12151 6.42572 6.30074 7.08376 7.24431 6.55702L10.4585 4.76521C11.402 4.24079 11.402 2.92476 10.4585 2.3988Z" fill="black"/>
</svg>
