<svg width="12" height="11" viewBox="0 0 12 11" fill="none" xmlns="http://www.w3.org/2000/svg">
<path d="M5.47685 0.463527C5.62653 0.00287151 6.27823 0.00287008 6.42791 0.463525L7.40103 3.45849C7.46797 3.6645 7.65995 3.80398 7.87656 3.80398H11.0256C11.51 3.80398 11.7114 4.42378 11.3195 4.70849L8.77187 6.55947C8.59663 6.68679 8.5233 6.91248 8.59024 7.11849L9.56336 10.1134C9.71303 10.5741 9.18579 10.9572 8.79394 10.6725L6.24627 8.82148C6.07103 8.69416 5.83373 8.69416 5.65849 8.82148L3.11082 10.6725C2.71897 10.9572 2.19173 10.5741 2.3414 10.1134L3.31452 7.11849C3.38146 6.91248 3.30813 6.68679 3.13289 6.55947L0.585224 4.70849C0.193367 4.42379 0.394754 3.80398 0.879116 3.80398H4.0282C4.24482 3.80398 4.43679 3.6645 4.50373 3.45849L5.47685 0.463527Z" fill="#F6C644"/>
</svg>
